<?xml version="1.0" encoding="UTF-8" standalone="no"?>
<!-- Generator: Adobe Illustrator 19.0.0, SVG Export Plug-In . SVG Version: 6.00 Build 0)  -->

<svg
   xmlns:dc="http://purl.org/dc/elements/1.1/"
   xmlns:cc="http://creativecommons.org/ns#"
   xmlns:rdf="http://www.w3.org/1999/02/22-rdf-syntax-ns#"
   xmlns:svg="http://www.w3.org/2000/svg"
   xmlns="http://www.w3.org/2000/svg"
   xmlns:sodipodi="http://sodipodi.sourceforge.net/DTD/sodipodi-0.dtd"
   xmlns:inkscape="http://www.inkscape.org/namespaces/inkscape"
   version="1.1"
   id="Capa_1"
   x="0px"
   y="0px"
   viewBox="0 0 30.453 30.453"
   style="enable-background:new 0 0 30.453 30.453;"
   xml:space="preserve"
   sodipodi:docname="logo.svg"
   inkscape:version="0.92.2 5c3e80d, 2017-08-06"><metadata
     id="metadata78"><rdf:RDF><cc:Work
         rdf:about=""><dc:format>image/svg+xml</dc:format><dc:type
           rdf:resource="http://purl.org/dc/dcmitype/StillImage" /></cc:Work></rdf:RDF></metadata><defs
     id="defs76" /><sodipodi:namedview
     pagecolor="#ffffff"
     bordercolor="#666666"
     borderopacity="1"
     objecttolerance="10"
     gridtolerance="10"
     guidetolerance="10"
     inkscape:pageopacity="0"
     inkscape:pageshadow="2"
     inkscape:window-width="1439"
     inkscape:window-height="847"
     id="namedview74"
     showgrid="false"
     inkscape:zoom="20.818967"
     inkscape:cx="23.824258"
     inkscape:cy="15.226499"
     inkscape:window-x="0"
     inkscape:window-y="0"
     inkscape:window-maximized="0"
     inkscape:current-layer="Capa_1" /><g
     id="g41"
     style="fill:#000000;fill-opacity:1;fill-rule:nonzero"><path
       d="M7.374,20.361c-0.276,0-0.5-0.224-0.5-0.5V3.5c0-1.93,1.481-3.5,3.303-3.5s3.303,1.57,3.303,3.5v10.637   c0,0.276-0.224,0.5-0.5,0.5s-0.5-0.224-0.5-0.5V3.5c0-1.378-1.033-2.5-2.303-2.5S7.874,2.122,7.874,3.5v16.361   C7.874,20.138,7.65,20.361,7.374,20.361z"
       id="path29"
       style="fill:#000000;fill-opacity:1;fill-rule:nonzero" /><path
       d="M9.539,30.453c-0.128,0-0.256-0.049-0.354-0.146l-7.412-7.412c-0.824-0.824-1.377-1.835-1.555-2.846   c-0.189-1.077,0.062-2.025,0.708-2.67c1.287-1.288,3.416-1.256,4.745,0.074l2.056,2.056c0.195,0.195,0.195,0.512,0,0.707   s-0.512,0.195-0.707,0l-2.056-2.056c-0.94-0.939-2.435-0.972-3.331-0.074c-0.409,0.409-0.562,1.044-0.431,1.79   c0.144,0.811,0.597,1.632,1.277,2.313L9.893,29.6c0.195,0.195,0.195,0.512,0,0.707C9.795,30.404,9.667,30.453,9.539,30.453z"
       id="path31"
       style="fill:#000000;fill-opacity:1;fill-rule:nonzero" /><path
       d="M18.586,15.209c-0.276,0-0.5-0.224-0.5-0.5v-2.563c0-1.138-1.033-2.063-2.303-2.063c-1.271,0-2.304,0.925-2.304,2.063   v2.563c0,0.276-0.224,0.5-0.5,0.5s-0.5-0.224-0.5-0.5v-2.563c0-1.689,1.482-3.063,3.304-3.063s3.303,1.374,3.303,3.063v2.563   C19.086,14.985,18.862,15.209,18.586,15.209z"
       id="path33"
       style="fill:#000000;fill-opacity:1;fill-rule:nonzero" /><path
       d="M24.19,15.209c-0.276,0-0.5-0.224-0.5-0.5v-2.27c0-0.959-1.054-1.77-2.302-1.77s-2.303,0.811-2.303,1.77v2.27   c0,0.276-0.224,0.5-0.5,0.5s-0.5-0.224-0.5-0.5v-2.27c0-1.527,1.481-2.77,3.303-2.77c1.82,0,3.302,1.243,3.302,2.77v2.27   C24.69,14.985,24.467,15.209,24.19,15.209z"
       id="path35"
       style="fill:#000000;fill-opacity:1;fill-rule:nonzero" /><path
       d="M29.796,21.627c-0.276,0-0.5-0.224-0.5-0.5V6.25c0-1.378-1.033-2.5-2.303-2.5s-2.303,1.122-2.303,2.5v8.459   c0,0.276-0.224,0.5-0.5,0.5s-0.5-0.224-0.5-0.5V6.25c0-1.93,1.481-3.5,3.303-3.5s3.303,1.57,3.303,3.5v14.877   C30.296,21.403,30.072,21.627,29.796,21.627z"
       id="path37"
       style="fill:#000000;fill-opacity:1;fill-rule:nonzero" /><path
       d="M25.796,30.449H9.578c-0.276,0-0.519-0.224-0.519-0.5s0.206-0.5,0.482-0.5h16.254c1.93,0,3.5-1.57,3.5-3.5v-5.396   c0-0.276,0.224-0.5,0.5-0.5s0.5,0.224,0.5,0.5v5.396C30.296,28.431,28.277,30.449,25.796,30.449z"
       id="path39"
       style="fill:#000000;fill-opacity:1;fill-rule:nonzero" /></g><g
     id="g43" /><g
     id="g45" /><g
     id="g47" /><g
     id="g49" /><g
     id="g51" /><g
     id="g53" /><g
     id="g55" /><g
     id="g57" /><g
     id="g59" /><g
     id="g61" /><g
     id="g63" /><g
     id="g65" /><g
     id="g67" /><g
     id="g69" /><g
     id="g71" /><path
     style="fill:#afafb4;stroke:none;stroke-width:0.04773197;fill-opacity:0"
     d="M 5.9304032,25.587644 C 1.9023705,21.553963 1.8285822,21.47317 1.5016119,20.738409 1.170425,19.994174 1.0950242,19.187148 1.3055085,18.639488 c 0.328706,-0.855263 1.4942835,-1.36964 2.5062927,-1.106045 0.590561,0.153821 0.7805258,0.298818 2.1073396,1.608486 1.2350878,1.219127 1.2479835,1.230077 1.4486654,1.230077 0.1666343,0 0.2312185,-0.02873 0.3647735,-0.162288 L 7.8948684,20.047429 7.895699,11.653761 C 7.8966154,2.3651612 7.8783904,2.9096699 8.2094722,2.27962 8.4495378,1.8227747 8.8045997,1.4734137 9.2551356,1.2507469 9.5681509,1.0960462 9.6759541,1.067883 10.025281,1.049548 c 0.293516,-0.015406 0.491682,0.00182 0.714419,0.062116 0.760617,0.2058895 1.411506,0.8944729 1.648561,1.744035 0.04546,0.1628997 0.06586,1.6249932 0.08615,6.1721796 l 0.02659,5.9587134 0.133924,0.115181 c 0.200606,0.172529 0.519184,0.161529 0.705057,-0.02434 l 0.139522,-0.139524 9.45e-4,-1.3521 c 0.0011,-1.542497 0.03657,-1.884411 0.236783,-2.281028 0.806627,-1.5979201 3.344272,-1.576055 4.141242,0.03568 l 0.179433,0.362873 0.02387,1.617623 0.02387,1.617623 0.155882,0.139188 c 0.215585,0.192497 0.475026,0.192496 0.690608,-4e-6 l 0.155882,-0.139191 0.02387,-1.424031 c 0.02262,-1.349847 0.0294,-1.435219 0.130019,-1.638824 0.324914,-0.657448 1.062544,-1.101272 1.947789,-1.171964 0.974015,-0.07778 1.975369,0.417157 2.320662,1.147031 l 0.135992,0.287459 2.87e-4,1.264897 c 1.91e-4,0.719496 0.02148,1.341141 0.04941,1.441721 0.100905,0.363314 0.557192,0.50243 0.842671,0.256919 l 0.133924,-0.115175 0.02483,-4.598357 c 0.02314,-4.2847173 0.03077,-4.6162641 0.111949,-4.8608838 0.31258,-0.9419283 0.979948,-1.5620093 1.85436,-1.7229683 1.130983,-0.2081875 2.284877,0.6586531 2.546402,1.9129343 0.06062,0.2907447 0.06823,1.7204724 0.05634,10.5860558 -0.0128,9.540925 -0.01944,10.268441 -0.09598,10.517774 -0.309471,1.008161 -0.95136,1.789308 -1.820667,2.215661 -0.846342,0.415089 0.03553,0.377795 -9.288112,0.392786 l -8.2814973,0.01332 -3.8498782,-3.855277 z"
     id="path4584"
     inkscape:connector-curvature="0" /><path
     style="fill:#afafb4;stroke:none;stroke-width:0.04803312;fill-opacity:0"
     d="M 5.9456272,25.628992 C 2.6043387,22.280074 2.1115829,21.767519 1.854736,21.373724 1.3781579,20.64304 1.1245133,19.781211 1.1942879,19.129665 c 0.1472878,-1.375352 1.7713573,-2.081978 3.1717523,-1.380016 0.1709325,0.08568 0.6001776,0.476814 1.4890268,1.356818 0.9039363,0.89494 1.2869923,1.243411 1.3869209,1.261698 0.2069065,0.03787 0.4527612,-0.0485 0.5468667,-0.19211 0.078427,-0.119682 0.085091,-0.657094 0.1076201,-8.679603 L 7.9204913,2.9444304 8.0287897,2.6600699 C 8.1918107,2.2320228 8.3640267,1.9646192 8.6708081,1.6631941 9.2876792,1.0570921 10.161647,0.87557256 10.972629,1.1851149 c 0.570716,0.2178356 1.132689,0.8339986 1.353117,1.4835983 l 0.109859,0.3237504 0.02402,5.9720677 0.02402,5.9720677 0.156866,0.140147 c 0.181873,0.16249 0.448931,0.188693 0.630067,0.06182 0.227995,-0.159694 0.245779,-0.293504 0.245779,-1.849241 0,-1.62791 0.01776,-1.745279 0.334268,-2.208584 0.215867,-0.31599 0.667178,-0.668277 1.043119,-0.814244 0.386284,-0.149982 1.138508,-0.184309 1.534402,-0.07002 0.852636,0.246142 1.456715,0.86299 1.599028,1.632828 0.03014,0.163065 0.05233,0.881651 0.05233,1.694931 v 1.411851 l 0.140404,0.140404 c 0.186994,0.186994 0.507592,0.198105 0.709505,0.02459 l 0.13477,-0.115816 0.02402,-1.410392 0.02402,-1.410393 0.157873,-0.320539 c 0.630691,-1.280529 2.799868,-1.544444 3.888273,-0.473071 0.455036,0.447914 0.465381,0.49183 0.492984,2.092817 0.02516,1.459475 0.03534,1.527486 0.251225,1.678697 0.22374,0.156713 0.638478,0.05231 0.748119,-0.188328 0.04314,-0.09468 0.05759,-1.219504 0.05822,-4.530724 9.27e-4,-4.8889966 -0.0054,-4.7801956 0.315753,-5.3914384 0.242947,-0.46233 0.598519,-0.8111133 1.058821,-1.0386069 0.364307,-0.1800503 0.384939,-0.184257 0.903674,-0.184257 0.478459,0 0.558628,0.01301 0.812235,0.1318094 0.638911,0.2992911 1.078578,0.7794952 1.321103,1.4429075 l 0.12671,0.346608 0.01323,10.2550714 c 0.01469,11.390008 0.03434,10.656859 -0.305011,11.379588 -0.364238,0.775726 -0.898397,1.329036 -1.62954,1.68796 -0.791944,0.388773 0.04248,0.355444 -9.271019,0.370305 l -8.3103567,0.01326 z"
     id="path4594"
     inkscape:connector-curvature="0" /><path
     style="fill:#a0a0a0;stroke:none;stroke-width:0.04803312"
     d="M 10.007324,0.97178888 C 9.1729098,0.95299621 8.4632483,1.5918691 8.0887196,2.2914802 7.7094837,2.9176482 7.8569411,3.6752705 7.8096405,4.3682474 7.7600102,9.4909373 7.8017832,14.61807 7.7274394,19.738199 7.7176522,19.940952 7.7573905,20.247425 7.4630695,20.256994 7.1346233,20.321905 6.9560981,19.945238 6.7192189,19.784593 5.9649476,19.106562 5.3069275,18.304067 4.4838958,17.700964 3.4661702,17.101293 1.9159202,17.328004 1.3109835,18.406499 c -0.39910448,0.789927 -0.1808045,1.735107 0.1487901,2.509543 0.4325274,0.832381 1.1817389,1.439929 1.8048361,2.123952 2.1390201,2.162827 4.2927786,4.310986 6.4384734,6.467223 0.7645359,0.06745 1.5543189,0.0072 2.3285709,0.02549 4.677204,-0.02011 9.354953,0.01093 14.031786,-0.05201 0.828176,0.02631 1.595007,-0.420101 2.192249,-0.958912 0.688303,-0.646766 1.126808,-1.579921 1.071144,-2.534843 0.05016,-5.690973 0.01392,-11.382468 0.02518,-17.0736477 -0.01374,-1.0641023 0.02745,-2.1360527 -0.02054,-3.195269 C 29.108741,4.8250365 28.479257,3.9727555 27.547576,3.7532069 26.533624,3.4722043 25.425888,4.0323827 24.951348,4.9497195 24.67693,5.3883032 24.607859,5.9065918 24.626874,6.414789 c -0.03843,2.8057218 0.0045,5.614906 -0.03859,8.418777 -0.09762,0.352161 -0.660697,0.389828 -0.785658,0.05714 -0.04125,-0.949497 0.02039,-1.908178 -0.09423,-2.852161 -0.358367,-1.032719 -1.566574,-1.519542 -2.593601,-1.425701 -0.773361,0.0566 -1.526662,0.486872 -1.938212,1.145665 -0.227864,0.648182 -0.116734,1.357779 -0.164404,2.031704 -0.02966,0.372416 0.03374,0.787431 -0.05427,1.133137 -0.165382,0.217459 -0.50362,0.274697 -0.687285,0.04578 -0.192921,-0.208923 -0.04477,-0.573567 -0.09832,-0.846121 -0.01869,-0.827314 -0.01153,-1.6579 -0.04635,-2.483171 -0.350918,-0.943258 -1.297221,-1.6761811 -2.327074,-1.610559 -0.937005,-0.04484 -1.889405,0.535598 -2.257181,1.400977 -0.230479,0.774848 -0.108312,1.601811 -0.145131,2.398373 -0.03763,0.378035 0.06894,0.796862 -0.100382,1.145946 -0.20296,0.260193 -0.737294,0.155942 -0.697653,-0.219225 -0.103518,-1.785922 -0.03782,-3.583294 -0.0581,-5.3741946 -0.0035,-2.1183544 0.0069,-4.2378156 -0.0052,-6.3554764 C 12.328982,2.199411 11.809923,1.4079289 10.994161,1.0843665 10.687858,0.93179588 10.336593,0.98087642 10.007324,0.97178888 Z"
     id="path4600"
     inkscape:connector-curvature="0" /></svg>
